<?xml version="1.0" encoding="UTF-8" standalone="no"?>
<!-- Created with Inkscape (http://www.inkscape.org/) -->

<svg
   width="49.283371mm"
   height="80.687309mm"
   viewBox="0 0 49.283371 80.687309"
   version="1.1"
   id="svg928"
   inkscape:version="1.2.1 (9c6d41e, 2022-07-14)"
   sodipodi:docname="LarvaDistBinsSchematic.svg"
   xmlns:inkscape="http://www.inkscape.org/namespaces/inkscape"
   xmlns:sodipodi="http://sodipodi.sourceforge.net/DTD/sodipodi-0.dtd"
   xmlns="http://www.w3.org/2000/svg"
   xmlns:svg="http://www.w3.org/2000/svg">
  <sodipodi:namedview
     id="namedview930"
     pagecolor="#ffffff"
     bordercolor="#ffffff"
     borderopacity="1"
     inkscape:showpageshadow="0"
     inkscape:pageopacity="0"
     inkscape:pagecheckerboard="1"
     inkscape:deskcolor="#505050"
     inkscape:document-units="mm"
     showgrid="false"
     inkscape:zoom="1.6819304"
     inkscape:cx="62.428266"
     inkscape:cy="122.18104"
     inkscape:window-width="1280"
     inkscape:window-height="930"
     inkscape:window-x="0"
     inkscape:window-y="25"
     inkscape:window-maximized="1"
     inkscape:current-layer="layer1" />
  <defs
     id="defs925">
    <linearGradient
       x1="0"
       y1="0"
       x2="1"
       y2="0"
       gradientUnits="userSpaceOnUse"
       gradientTransform="matrix(8.6669998,0,0,-8.6669998,427.96579,341.45441)"
       spreadMethod="pad"
       id="linearGradient880">
      <stop
         style="stop-opacity:1;stop-color:#ee7e7c"
         offset="0"
         id="stop874" />
      <stop
         style="stop-opacity:1;stop-color:#e6314e"
         offset="0.5"
         id="stop876" />
      <stop
         style="stop-opacity:1;stop-color:#d80d3a"
         offset="1"
         id="stop878" />
    </linearGradient>
    <clipPath
       clipPathUnits="userSpaceOnUse"
       id="clipPath890">
      <path
         d="M 0,695.001 H 474.001 V 0 H 0 Z"
         id="path888" />
    </clipPath>
    <linearGradient
       x1="0"
       y1="0"
       x2="1"
       y2="0"
       gradientUnits="userSpaceOnUse"
       gradientTransform="matrix(-10.174208,-0.2860096,0.2860096,-10.174208,293.29755,338.90347)"
       spreadMethod="pad"
       id="linearGradient912">
      <stop
         style="stop-opacity:1;stop-color:#ee7e7c"
         offset="0"
         id="stop906" />
      <stop
         style="stop-opacity:1;stop-color:#e6314e"
         offset="0.5"
         id="stop908" />
      <stop
         style="stop-opacity:1;stop-color:#d80d3a"
         offset="1"
         id="stop910" />
    </linearGradient>
    <clipPath
       clipPathUnits="userSpaceOnUse"
       id="clipPath978">
      <path
         d="M 0,695.001 H 474.001 V 0 H 0 Z"
         id="path976" />
    </clipPath>
    <clipPath
       clipPathUnits="userSpaceOnUse"
       id="clipPath1134">
      <path
         d="M 0,695.001 H 474.001 V 0 H 0 Z"
         id="path1132" />
    </clipPath>
    <clipPath
       clipPathUnits="userSpaceOnUse"
       id="clipPath1645">
      <g
         id="g1649"
         transform="matrix(2.8346458,0,0,-2.8346458,-134.93544,372.33537)">
        <path
           d="M -48.997892,37.794837 H 118.21912 V 282.97574 H -48.997892 Z"
           id="path1647"
           style="stroke-width:0.352778" />
      </g>
    </clipPath>
    <clipPath
       clipPathUnits="userSpaceOnUse"
       id="clipPath1651">
      <g
         id="g1655"
         transform="matrix(2.8346458,0,0,-2.8346458,-134.93544,372.33537)">
        <path
           d="M -48.997892,37.794837 H 118.21912 V 282.97574 H -48.997892 Z"
           id="path1653"
           style="stroke-width:0.352778" />
      </g>
    </clipPath>
    <clipPath
       clipPathUnits="userSpaceOnUse"
       id="clipPath1657">
      <g
         id="g1661"
         transform="matrix(2.8346458,0,0,-2.8346458,-167.06343,384.88327)">
        <path
           d="M -48.997892,37.794837 H 118.21912 V 282.97574 H -48.997892 Z"
           id="path1659"
           style="stroke-width:0.352778" />
      </g>
    </clipPath>
    <clipPath
       clipPathUnits="userSpaceOnUse"
       id="clipPath1663">
      <g
         id="g1667"
         transform="matrix(2.8346458,0,0,-2.8346458,-274.53313,383.88567)">
        <path
           d="M -48.997892,37.794837 H 118.21912 V 282.97574 H -48.997892 Z"
           id="path1665"
           style="stroke-width:0.352778" />
      </g>
    </clipPath>
    <clipPath
       clipPathUnits="userSpaceOnUse"
       id="clipPath1669">
      <g
         id="g1673"
         transform="matrix(2.8346458,0,0,-2.8346458,-274.53313,383.88567)">
        <path
           d="M -48.997892,37.794837 H 118.21912 V 282.97574 H -48.997892 Z"
           id="path1671"
           style="stroke-width:0.352778" />
      </g>
    </clipPath>
    <clipPath
       clipPathUnits="userSpaceOnUse"
       id="clipPath1675">
      <g
         id="g1679"
         transform="matrix(2.8346458,0,0,-2.8346458,-151.77243,358.55998)">
        <path
           d="M -48.997892,37.794837 H 118.21912 V 282.97574 H -48.997892 Z"
           id="path1677"
           style="stroke-width:0.352778" />
      </g>
    </clipPath>
    <clipPath
       clipPathUnits="userSpaceOnUse"
       id="clipPath1681">
      <g
         id="g1685"
         transform="matrix(2.8346458,0,0,-2.8346458,-151.77243,358.55998)">
        <path
           d="M -48.997892,37.794837 H 118.21912 V 282.97574 H -48.997892 Z"
           id="path1683"
           style="stroke-width:0.352778" />
      </g>
    </clipPath>
    <clipPath
       clipPathUnits="userSpaceOnUse"
       id="clipPath1687">
      <g
         id="g1691"
         transform="matrix(2.8346458,0,0,-2.8346458,-145.67574,423.90228)">
        <path
           d="M -48.997892,37.794837 H 118.21912 V 282.97574 H -48.997892 Z"
           id="path1689"
           style="stroke-width:0.352778" />
      </g>
    </clipPath>
  </defs>
  <g
     inkscape:label="Layer 1"
     inkscape:groupmode="layer"
     id="layer1"
     transform="translate(-53.442123,-118.50334)">
    <g
       id="g928"
       transform="matrix(0.35277777,0,0,-0.35277777,53.541941,126.49199)"
       style="stroke-width:0.561938;stroke-miterlimit:4;stroke-dasharray:none"
       clip-path="url(#clipPath1681)">
      <path
         d="m 0,0 137.678,0.975 1.457,-205.792 -137.677,-0.975 -0.116,16.38 -1.253,176.822 z"
         style="fill:#666666;fill-opacity:1;fill-rule:nonzero;stroke:none;stroke-width:0.561938;stroke-miterlimit:4;stroke-dasharray:none"
         id="path930" />
    </g>
    <g
       id="g932"
       transform="matrix(0.35277777,0,0,-0.35277777,53.541941,126.49199)"
       style="stroke-width:0.561938;stroke-miterlimit:4;stroke-dasharray:none"
       clip-path="url(#clipPath1675)">
      <path
         d="m 0,0 137.678,0.975 1.457,-205.792 -137.677,-0.975 -0.116,16.38 -1.253,176.822 z"
         style="fill:none;stroke:#1d1d1b;stroke-width:0.561938;stroke-linecap:butt;stroke-linejoin:miter;stroke-miterlimit:4;stroke-dasharray:none;stroke-opacity:1"
         id="path934" />
    </g>
    <g
       id="g936"
       transform="matrix(0.35277777,0,0,-0.35277777,96.849187,135.42633)"
       style="stroke-width:0.561938;stroke-miterlimit:4;stroke-dasharray:none"
       clip-path="url(#clipPath1669)">
      <path
         d="m -0.0957,13.3824 1.2777,-180.1694 -107.474,-0.762 -1.2747,180.1704 z"
         style="fill:#35a8e0;fill-opacity:1;fill-rule:nonzero;stroke:none;stroke-width:0.561938;stroke-miterlimit:4;stroke-dasharray:none"
         id="path938"
         sodipodi:nodetypes="ccccc" />
    </g>
    <g
       id="g940"
       transform="matrix(0.35277777,0,0,-0.35277777,96.849187,135.42633)"
       style="stroke-width:0.561938;stroke-miterlimit:4;stroke-dasharray:none"
       clip-path="url(#clipPath1663)">
      <path
         d="m -0.0957,13.3824 1.2777,-180.1694 -107.474,-0.762 -1.2747,180.1704 z"
         style="fill:none;stroke:#1d1d1b;stroke-width:0.561938;stroke-linecap:butt;stroke-linejoin:miter;stroke-miterlimit:4;stroke-dasharray:none;stroke-opacity:1"
         id="path942"
         sodipodi:nodetypes="ccccc" />
    </g>
    <g
       id="g944"
       transform="matrix(0.35277777,0,0,-0.35277777,58.936266,135.77826)"
       style="stroke-width:0.561938;stroke-miterlimit:4;stroke-dasharray:none"
       clip-path="url(#clipPath1657)">
      <path
         d="m -0.097,13.619 v 0 l 107.471,0.761 v 0 z"
         style="fill:#ffffff;fill-opacity:1;fill-rule:nonzero;stroke:none;stroke-width:0.561938;stroke-miterlimit:4;stroke-dasharray:none"
         id="path946"
         sodipodi:nodetypes="ccccc" />
    </g>
    <g
       id="g948"
       transform="matrix(0.35277777,0,0,-0.35277777,58.936266,135.77826)"
       style="stroke-width:0.561938;stroke-miterlimit:4;stroke-dasharray:none" />
    <text
       style="font-variant:normal;font-weight:normal;font-stretch:normal;font-size:4.23333px;font-family:'Myriad Pro';-inkscape-font-specification:MyriadPro-Regular;writing-mode:lr-tb;fill:#1d1d1b;fill-opacity:1;fill-rule:nonzero;stroke:none;stroke-width:0.198239;stroke-miterlimit:4;stroke-dasharray:none"
       id="text1002"
       inkscape:export-filename="/Users/AlbBezaresC/Downloads/ChamberDiagramplaty_Paper1.png"
       inkscape:export-xdpi="96"
       inkscape:export-ydpi="96"
       x="68.82988"
       y="140.27579"><tspan
         x="68.82988 69.828949 71.869415 73.35955 75.378853 77.419319"
         y="140.27579"
         sodipodi:role="line"
         id="tspan1000"
         style="stroke-width:0.198239">larvae</tspan></text>
    <text
       style="font-variant:normal;font-weight:normal;font-stretch:normal;font-size:4.23333px;font-family:'Myriad Pro';-inkscape-font-specification:MyriadPro-Regular;writing-mode:lr-tb;fill:#1d1d1b;fill-opacity:1;fill-rule:nonzero;stroke:none;stroke-width:0.198239;stroke-miterlimit:4;stroke-dasharray:none"
       id="text1002-9"
       inkscape:export-filename="/Users/AlbBezaresC/Downloads/ChamberDiagramplaty_Paper1.png"
       inkscape:export-xdpi="96"
       inkscape:export-ydpi="96"
       x="59.914204"
       y="121.71968"><tspan
         sodipodi:role="line"
         id="tspan1000-3"
         style="stroke-width:0.198239"
         x="59.914204"
         y="121.71968">Pressure chamber</tspan></text>
    <g
       id="g1224"
       transform="matrix(0.35277777,0,0,-0.35277777,62.515373,161.27626)"
       inkscape:export-filename="/Users/AlbBezaresC/Downloads/ChamberDiagramplaty_Paper1.png"
       inkscape:export-xdpi="96"
       inkscape:export-ydpi="96"
       style="stroke-width:0.561938;stroke-miterlimit:4;stroke-dasharray:none">
      <path
         d="M 0,0 C 3.217,0 3.223,5 0,5 -3.217,5 -3.223,0 0,0"
         style="fill:#181919;fill-opacity:1;fill-rule:nonzero;stroke:none;stroke-width:0.561938;stroke-miterlimit:4;stroke-dasharray:none"
         id="path1226" />
    </g>
    <g
       id="g1228"
       transform="matrix(0.35277777,0,0,-0.35277777,68.512595,172.91793)"
       inkscape:export-filename="/Users/AlbBezaresC/Downloads/ChamberDiagramplaty_Paper1.png"
       inkscape:export-xdpi="96"
       inkscape:export-ydpi="96"
       style="stroke-width:0.561938;stroke-miterlimit:4;stroke-dasharray:none">
      <path
         d="M 0,0 C 3.217,0 3.223,5 0,5 -3.217,5 -3.223,0 0,0"
         style="fill:#181919;fill-opacity:1;fill-rule:nonzero;stroke:none;stroke-width:0.561938;stroke-miterlimit:4;stroke-dasharray:none"
         id="path1230" />
    </g>
    <g
       id="g1232"
       transform="matrix(0.35277777,0,0,-0.35277777,72.39315,165.15682)"
       inkscape:export-filename="/Users/AlbBezaresC/Downloads/ChamberDiagramplaty_Paper1.png"
       inkscape:export-xdpi="96"
       inkscape:export-ydpi="96"
       style="stroke-width:0.561938;stroke-miterlimit:4;stroke-dasharray:none">
      <path
         d="M 0,0 C 3.217,0 3.223,5 0,5 -3.217,5 -3.223,0 0,0"
         style="fill:#181919;fill-opacity:1;fill-rule:nonzero;stroke:none;stroke-width:0.561938;stroke-miterlimit:4;stroke-dasharray:none"
         id="path1234" />
    </g>
    <g
       id="g1236"
       transform="matrix(0.35277777,0,0,-0.35277777,72.39315,153.51515)"
       inkscape:export-filename="/Users/AlbBezaresC/Downloads/ChamberDiagramplaty_Paper1.png"
       inkscape:export-xdpi="96"
       inkscape:export-ydpi="96"
       style="stroke-width:0.561938;stroke-miterlimit:4;stroke-dasharray:none">
      <path
         d="M 0,0 C 3.217,0 3.223,5 0,5 -3.217,5 -3.223,0 0,0"
         style="fill:#181919;fill-opacity:1;fill-rule:nonzero;stroke:none;stroke-width:0.561938;stroke-miterlimit:4;stroke-dasharray:none"
         id="path1238" />
    </g>
    <g
       id="g1240"
       transform="matrix(0.35277777,0,0,-0.35277777,87.915372,161.27626)"
       inkscape:export-filename="/Users/AlbBezaresC/Downloads/ChamberDiagramplaty_Paper1.png"
       inkscape:export-xdpi="96"
       inkscape:export-ydpi="96"
       style="stroke-width:0.561938;stroke-miterlimit:4;stroke-dasharray:none">
      <path
         d="M 0,0 C 3.217,0 3.223,5 0,5 -3.217,5 -3.223,0 0,0"
         style="fill:#181919;fill-opacity:1;fill-rule:nonzero;stroke:none;stroke-width:0.561938;stroke-miterlimit:4;stroke-dasharray:none"
         id="path1242" />
    </g>
    <g
       id="g1244"
       transform="matrix(0.35277777,0,0,-0.35277777,63.573706,178.91515)"
       inkscape:export-filename="/Users/AlbBezaresC/Downloads/ChamberDiagramplaty_Paper1.png"
       inkscape:export-xdpi="96"
       inkscape:export-ydpi="96"
       style="stroke-width:0.561938;stroke-miterlimit:4;stroke-dasharray:none">
      <path
         d="M 0,0 C 3.217,0 3.223,5 0,5 -3.217,5 -3.223,0 0,0"
         style="fill:#181919;fill-opacity:1;fill-rule:nonzero;stroke:none;stroke-width:0.561938;stroke-miterlimit:4;stroke-dasharray:none"
         id="path1246" />
    </g>
    <g
       id="g1248"
       transform="matrix(0.35277777,0,0,-0.35277777,69.570928,190.55682)"
       inkscape:export-filename="/Users/AlbBezaresC/Downloads/ChamberDiagramplaty_Paper1.png"
       inkscape:export-xdpi="96"
       inkscape:export-ydpi="96"
       style="stroke-width:0.561938;stroke-miterlimit:4;stroke-dasharray:none">
      <path
         d="M 0,0 C 3.217,0 3.223,5 0,5 -3.217,5 -3.223,0 0,0"
         style="fill:#181919;fill-opacity:1;fill-rule:nonzero;stroke:none;stroke-width:0.561938;stroke-miterlimit:4;stroke-dasharray:none"
         id="path1250" />
    </g>
    <g
       id="g1252"
       transform="matrix(0.35277777,0,0,-0.35277777,73.451484,182.79571)"
       inkscape:export-filename="/Users/AlbBezaresC/Downloads/ChamberDiagramplaty_Paper1.png"
       inkscape:export-xdpi="96"
       inkscape:export-ydpi="96"
       style="stroke-width:0.561938;stroke-miterlimit:4;stroke-dasharray:none">
      <path
         d="M 0,0 C 3.217,0 3.223,5 0,5 -3.217,5 -3.223,0 0,0"
         style="fill:#181919;fill-opacity:1;fill-rule:nonzero;stroke:none;stroke-width:0.561938;stroke-miterlimit:4;stroke-dasharray:none"
         id="path1254" />
    </g>
    <g
       id="g1256"
       transform="matrix(0.35277777,0,0,-0.35277777,73.451484,171.15404)"
       inkscape:export-filename="/Users/AlbBezaresC/Downloads/ChamberDiagramplaty_Paper1.png"
       inkscape:export-xdpi="96"
       inkscape:export-ydpi="96"
       style="stroke-width:0.561938;stroke-miterlimit:4;stroke-dasharray:none">
      <path
         d="M 0,0 C 3.217,0 3.223,5 0,5 -3.217,5 -3.223,0 0,0"
         style="fill:#181919;fill-opacity:1;fill-rule:nonzero;stroke:none;stroke-width:0.561938;stroke-miterlimit:4;stroke-dasharray:none"
         id="path1258" />
    </g>
    <g
       id="g1260"
       transform="matrix(0.35277777,0,0,-0.35277777,84.313484,175.19153)"
       inkscape:export-filename="/Users/AlbBezaresC/Downloads/ChamberDiagramplaty_Paper1.png"
       inkscape:export-xdpi="96"
       inkscape:export-ydpi="96"
       style="stroke-width:0.561938;stroke-miterlimit:4;stroke-dasharray:none">
      <path
         d="M 0,0 C 3.217,0 3.223,5 0,5 -3.217,5 -3.223,0 0,0"
         style="fill:#181919;fill-opacity:1;fill-rule:nonzero;stroke:none;stroke-width:0.561938;stroke-miterlimit:4;stroke-dasharray:none"
         id="path1262" />
    </g>
    <g
       id="g1264"
       transform="matrix(0.35277777,0,0,-0.35277777,63.573706,155.63182)"
       inkscape:export-filename="/Users/AlbBezaresC/Downloads/ChamberDiagramplaty_Paper1.png"
       inkscape:export-xdpi="96"
       inkscape:export-ydpi="96"
       style="stroke-width:0.561938;stroke-miterlimit:4;stroke-dasharray:none">
      <path
         d="M 0,0 C 3.217,0 3.223,5 0,5 -3.217,5 -3.223,0 0,0"
         style="fill:#181919;fill-opacity:1;fill-rule:nonzero;stroke:none;stroke-width:0.561938;stroke-miterlimit:4;stroke-dasharray:none"
         id="path1266" />
    </g>
    <g
       id="g1268"
       transform="matrix(0.35277777,0,0,-0.35277777,69.570928,167.27349)"
       inkscape:export-filename="/Users/AlbBezaresC/Downloads/ChamberDiagramplaty_Paper1.png"
       inkscape:export-xdpi="96"
       inkscape:export-ydpi="96"
       style="stroke-width:0.561938;stroke-miterlimit:4;stroke-dasharray:none">
      <path
         d="M 0,0 C 3.217,0 3.223,5 0,5 -3.217,5 -3.223,0 0,0"
         style="fill:#181919;fill-opacity:1;fill-rule:nonzero;stroke:none;stroke-width:0.561938;stroke-miterlimit:4;stroke-dasharray:none"
         id="path1270" />
    </g>
    <g
       id="g1272"
       transform="matrix(0.35277777,0,0,-0.35277777,73.451484,159.51238)"
       inkscape:export-filename="/Users/AlbBezaresC/Downloads/ChamberDiagramplaty_Paper1.png"
       inkscape:export-xdpi="96"
       inkscape:export-ydpi="96"
       style="stroke-width:0.561938;stroke-miterlimit:4;stroke-dasharray:none">
      <path
         d="M 0,0 C 3.217,0 3.223,5 0,5 -3.217,5 -3.223,0 0,0"
         style="fill:#181919;fill-opacity:1;fill-rule:nonzero;stroke:none;stroke-width:0.561938;stroke-miterlimit:4;stroke-dasharray:none"
         id="path1274" />
    </g>
    <g
       id="g1276"
       transform="matrix(0.35277777,0,0,-0.35277777,73.451484,147.87071)"
       inkscape:export-filename="/Users/AlbBezaresC/Downloads/ChamberDiagramplaty_Paper1.png"
       inkscape:export-xdpi="96"
       inkscape:export-ydpi="96"
       style="stroke-width:0.561938;stroke-miterlimit:4;stroke-dasharray:none">
      <path
         d="M 0,0 C 3.217,0 3.223,5 0,5 -3.217,5 -3.223,0 0,0"
         style="fill:#181919;fill-opacity:1;fill-rule:nonzero;stroke:none;stroke-width:0.561938;stroke-miterlimit:4;stroke-dasharray:none"
         id="path1278" />
    </g>
    <g
       id="g1280"
       transform="matrix(0.35277777,0,0,-0.35277777,88.973706,155.63182)"
       inkscape:export-filename="/Users/AlbBezaresC/Downloads/ChamberDiagramplaty_Paper1.png"
       inkscape:export-xdpi="96"
       inkscape:export-ydpi="96"
       style="stroke-width:0.561938;stroke-miterlimit:4;stroke-dasharray:none">
      <path
         d="M 0,0 C 3.217,0 3.223,5 0,5 -3.217,5 -3.223,0 0,0"
         style="fill:#181919;fill-opacity:1;fill-rule:nonzero;stroke:none;stroke-width:0.561938;stroke-miterlimit:4;stroke-dasharray:none"
         id="path1282" />
    </g>
    <g
       id="g1284"
       transform="matrix(0.35277777,0,0,-0.35277777,83.649654,146.6949)"
       inkscape:export-filename="/Users/AlbBezaresC/Downloads/ChamberDiagramplaty_Paper1.png"
       inkscape:export-xdpi="96"
       inkscape:export-ydpi="96"
       style="stroke-width:0.561938;stroke-miterlimit:4;stroke-dasharray:none">
      <path
         d="M 0,0 C 3.217,0 3.223,5 0,5 -3.218,5 -3.223,0 0,0"
         style="fill:#181919;fill-opacity:1;fill-rule:nonzero;stroke:none;stroke-width:0.561938;stroke-miterlimit:4;stroke-dasharray:none"
         id="path1286" />
    </g>
    <g
       id="g1288"
       transform="matrix(0.35277777,0,0,-0.35277777,74.729597,156.28294)"
       inkscape:export-filename="/Users/AlbBezaresC/Downloads/ChamberDiagramplaty_Paper1.png"
       inkscape:export-xdpi="96"
       inkscape:export-ydpi="96"
       style="stroke-width:0.561938;stroke-miterlimit:4;stroke-dasharray:none">
      <path
         d="M 0,0 C 3.217,0 3.223,5 0,5 -3.217,5 -3.223,0 0,0"
         style="fill:#181919;fill-opacity:1;fill-rule:nonzero;stroke:none;stroke-width:0.561938;stroke-miterlimit:4;stroke-dasharray:none"
         id="path1290" />
    </g>
    <g
       id="g1292"
       transform="matrix(0.35277777,0,0,-0.35277777,83.346477,157.30339)"
       inkscape:export-filename="/Users/AlbBezaresC/Downloads/ChamberDiagramplaty_Paper1.png"
       inkscape:export-xdpi="96"
       inkscape:export-ydpi="96"
       style="stroke-width:0.561938;stroke-miterlimit:4;stroke-dasharray:none">
      <path
         d="M 0,0 C 3.218,0 3.223,5 0,5 -3.217,5 -3.223,0 0,0"
         style="fill:#181919;fill-opacity:1;fill-rule:nonzero;stroke:none;stroke-width:0.561938;stroke-miterlimit:4;stroke-dasharray:none"
         id="path1294" />
    </g>
    <g
       id="g1296"
       transform="matrix(0.35277777,0,0,-0.35277777,94.299133,153.35771)"
       inkscape:export-filename="/Users/AlbBezaresC/Downloads/ChamberDiagramplaty_Paper1.png"
       inkscape:export-xdpi="96"
       inkscape:export-ydpi="96"
       style="stroke-width:0.561938;stroke-miterlimit:4;stroke-dasharray:none">
      <path
         d="M 0,0 C 3.218,0 3.223,5 0,5 -3.217,5 -3.223,0 0,0"
         style="fill:#181919;fill-opacity:1;fill-rule:nonzero;stroke:none;stroke-width:0.561938;stroke-miterlimit:4;stroke-dasharray:none"
         id="path1298" />
    </g>
    <g
       id="g1300"
       transform="matrix(0.35277777,0,0,-0.35277777,92.258596,170.59147)"
       inkscape:export-filename="/Users/AlbBezaresC/Downloads/ChamberDiagramplaty_Paper1.png"
       inkscape:export-xdpi="96"
       inkscape:export-ydpi="96"
       style="stroke-width:0.561938;stroke-miterlimit:4;stroke-dasharray:none">
      <path
         d="M 0,0 C 3.217,0 3.223,5 0,5 -3.218,5 -3.223,0 0,0"
         style="fill:#181919;fill-opacity:1;fill-rule:nonzero;stroke:none;stroke-width:0.561938;stroke-miterlimit:4;stroke-dasharray:none"
         id="path1302" />
    </g>
    <g
       id="g1304"
       transform="matrix(0.35277777,0,0,-0.35277777,81.91815,182.79571)"
       inkscape:export-filename="/Users/AlbBezaresC/Downloads/ChamberDiagramplaty_Paper1.png"
       inkscape:export-xdpi="96"
       inkscape:export-ydpi="96"
       style="stroke-width:0.561938;stroke-miterlimit:4;stroke-dasharray:none">
      <path
         d="M 0,0 C 3.217,0 3.223,5 0,5 -3.217,5 -3.223,0 0,0"
         style="fill:#181919;fill-opacity:1;fill-rule:nonzero;stroke:none;stroke-width:0.561938;stroke-miterlimit:4;stroke-dasharray:none"
         id="path1306" />
    </g>
    <g
       id="g1308"
       transform="matrix(0.35277777,0,0,-0.35277777,82.976483,177.15126)"
       inkscape:export-filename="/Users/AlbBezaresC/Downloads/ChamberDiagramplaty_Paper1.png"
       inkscape:export-xdpi="96"
       inkscape:export-ydpi="96"
       style="stroke-width:0.561938;stroke-miterlimit:4;stroke-dasharray:none">
      <path
         d="M 0,0 C 3.217,0 3.223,5 0,5 -3.217,5 -3.223,0 0,0"
         style="fill:#181919;fill-opacity:1;fill-rule:nonzero;stroke:none;stroke-width:0.561938;stroke-miterlimit:4;stroke-dasharray:none"
         id="path1310" />
    </g>
    <g
       id="g1312"
       transform="matrix(0.35277777,0,0,-0.35277777,84.254597,185.5635)"
       inkscape:export-filename="/Users/AlbBezaresC/Downloads/ChamberDiagramplaty_Paper1.png"
       inkscape:export-xdpi="96"
       inkscape:export-ydpi="96"
       style="stroke-width:0.561938;stroke-miterlimit:4;stroke-dasharray:none">
      <path
         d="M 0,0 C 3.217,0 3.223,5 0,5 -3.217,5 -3.223,0 0,0"
         style="fill:#181919;fill-opacity:1;fill-rule:nonzero;stroke:none;stroke-width:0.561938;stroke-miterlimit:4;stroke-dasharray:none"
         id="path1314" />
    </g>
    <g
       id="g1316"
       transform="matrix(0.35277777,0,0,-0.35277777,76.565171,176.67928)"
       inkscape:export-filename="/Users/AlbBezaresC/Downloads/ChamberDiagramplaty_Paper1.png"
       inkscape:export-xdpi="96"
       inkscape:export-ydpi="96"
       style="stroke-width:0.561938;stroke-miterlimit:4;stroke-dasharray:none">
      <path
         d="M 0,0 C 3.218,0 3.223,5 0,5 -3.217,5 -3.223,0 0,0"
         style="fill:#181919;fill-opacity:1;fill-rule:nonzero;stroke:none;stroke-width:0.561938;stroke-miterlimit:4;stroke-dasharray:none"
         id="path1318" />
    </g>
    <g
       id="g1320"
       transform="matrix(0.35277777,0,0,-0.35277777,77.732371,187.22748)"
       inkscape:export-filename="/Users/AlbBezaresC/Downloads/ChamberDiagramplaty_Paper1.png"
       inkscape:export-xdpi="96"
       inkscape:export-ydpi="96"
       style="stroke-width:0.561938;stroke-miterlimit:4;stroke-dasharray:none">
      <path
         d="M 0,0 C 3.217,0 3.223,5 0,5 -3.218,5 -3.223,0 0,0"
         style="fill:#181919;fill-opacity:1;fill-rule:nonzero;stroke:none;stroke-width:0.561938;stroke-miterlimit:4;stroke-dasharray:none"
         id="path1322" />
    </g>
    <g
       id="g1324"
       transform="matrix(0.35277777,0,0,-0.35277777,88.03387,181.8049)"
       inkscape:export-filename="/Users/AlbBezaresC/Downloads/ChamberDiagramplaty_Paper1.png"
       inkscape:export-xdpi="96"
       inkscape:export-ydpi="96"
       style="stroke-width:0.561938;stroke-miterlimit:4;stroke-dasharray:none">
      <path
         d="M 0,0 C 3.218,0 3.223,5 0,5 -3.217,5 -3.223,0 0,0"
         style="fill:#181919;fill-opacity:1;fill-rule:nonzero;stroke:none;stroke-width:0.561938;stroke-miterlimit:4;stroke-dasharray:none"
         id="path1326" />
    </g>
    <g
       id="g1328"
       transform="matrix(0.35277777,0,0,-0.35277777,93.521575,180.11234)"
       inkscape:export-filename="/Users/AlbBezaresC/Downloads/ChamberDiagramplaty_Paper1.png"
       inkscape:export-xdpi="96"
       inkscape:export-ydpi="96"
       style="stroke-width:0.561938;stroke-miterlimit:4;stroke-dasharray:none">
      <path
         d="M 0,0 C 3.218,0 3.223,5 0,5 -3.217,5 -3.223,0 0,0"
         style="fill:#181919;fill-opacity:1;fill-rule:nonzero;stroke:none;stroke-width:0.561938;stroke-miterlimit:4;stroke-dasharray:none"
         id="path1330" />
    </g>
    <g
       id="g1332"
       transform="matrix(0.35277777,0,0,-0.35277777,86.673065,185.16179)"
       inkscape:export-filename="/Users/AlbBezaresC/Downloads/ChamberDiagramplaty_Paper1.png"
       inkscape:export-xdpi="96"
       inkscape:export-ydpi="96"
       style="stroke-width:0.561938;stroke-miterlimit:4;stroke-dasharray:none">
      <path
         d="M 0,0 C 3.217,0 3.223,5 0,5 -3.218,5 -3.223,0 0,0"
         style="fill:#181919;fill-opacity:1;fill-rule:nonzero;stroke:none;stroke-width:0.561938;stroke-miterlimit:4;stroke-dasharray:none"
         id="path1334" />
    </g>
    <g
       id="g1336"
       transform="matrix(0.35277777,0,0,-0.35277777,89.783648,193.26224)"
       inkscape:export-filename="/Users/AlbBezaresC/Downloads/ChamberDiagramplaty_Paper1.png"
       inkscape:export-xdpi="96"
       inkscape:export-ydpi="96"
       style="stroke-width:0.561938;stroke-miterlimit:4;stroke-dasharray:none">
      <path
         d="M 0,0 C 3.218,0 3.223,5 0,5 -3.217,5 -3.223,0 0,0"
         style="fill:#181919;fill-opacity:1;fill-rule:nonzero;stroke:none;stroke-width:0.561938;stroke-miterlimit:4;stroke-dasharray:none"
         id="path1338" />
    </g>
    <g
       id="g1340"
       transform="matrix(0.35277777,0,0,-0.35277777,88.414553,169.64267)"
       inkscape:export-filename="/Users/AlbBezaresC/Downloads/ChamberDiagramplaty_Paper1.png"
       inkscape:export-xdpi="96"
       inkscape:export-ydpi="96"
       style="stroke-width:0.561938;stroke-miterlimit:4;stroke-dasharray:none">
      <path
         d="M 0,0 C 3.217,0 3.223,5 0,5 -3.218,5 -3.223,0 0,0"
         style="fill:#181919;fill-opacity:1;fill-rule:nonzero;stroke:none;stroke-width:0.561938;stroke-miterlimit:4;stroke-dasharray:none"
         id="path1342" />
    </g>
    <g
       id="g1344"
       transform="matrix(0.35277777,0,0,-0.35277777,83.220747,166.46287)"
       inkscape:export-filename="/Users/AlbBezaresC/Downloads/ChamberDiagramplaty_Paper1.png"
       inkscape:export-xdpi="96"
       inkscape:export-ydpi="96"
       style="stroke-width:0.561938;stroke-miterlimit:4;stroke-dasharray:none">
      <path
         d="M 0,0 C 3.217,0 3.223,5 0,5 -3.218,5 -3.223,0 0,0"
         style="fill:#181919;fill-opacity:1;fill-rule:nonzero;stroke:none;stroke-width:0.561938;stroke-miterlimit:4;stroke-dasharray:none"
         id="path1346" />
    </g>
    <g
       id="g1348"
       transform="matrix(0.35277777,0,0,-0.35277777,88.69808,166.12629)"
       inkscape:export-filename="/Users/AlbBezaresC/Downloads/ChamberDiagramplaty_Paper1.png"
       inkscape:export-xdpi="96"
       inkscape:export-ydpi="96"
       style="stroke-width:0.561938;stroke-miterlimit:4;stroke-dasharray:none">
      <path
         d="M 0,0 C 3.218,0 3.223,5 0,5 -3.217,5 -3.223,0 0,0"
         style="fill:#181919;fill-opacity:1;fill-rule:nonzero;stroke:none;stroke-width:0.561938;stroke-miterlimit:4;stroke-dasharray:none"
         id="path1350" />
    </g>
    <g
       id="g1352"
       transform="matrix(0.35277777,0,0,-0.35277777,77.018878,165.13548)"
       inkscape:export-filename="/Users/AlbBezaresC/Downloads/ChamberDiagramplaty_Paper1.png"
       inkscape:export-xdpi="96"
       inkscape:export-ydpi="96"
       style="stroke-width:0.561938;stroke-miterlimit:4;stroke-dasharray:none">
      <path
         d="M 0,0 C 3.218,0 3.223,5 0,5 -3.217,5 -3.223,0 0,0"
         style="fill:#181919;fill-opacity:1;fill-rule:nonzero;stroke:none;stroke-width:0.561938;stroke-miterlimit:4;stroke-dasharray:none"
         id="path1354" />
    </g>
    <path
       style="fill:none;stroke:#000000;stroke-width:0.148679;stroke-linecap:butt;stroke-linejoin:miter;stroke-miterlimit:4;stroke-dasharray:none;stroke-opacity:1"
       d="m 73.451484,147.87071 v 0 l 1.310195,-7.31971 8.584798,16.75239"
       id="path42442"
       sodipodi:nodetypes="ccc"
       inkscape:export-filename="/Users/AlbBezaresC/Downloads/ChamberDiagramplaty_Paper1.png"
       inkscape:export-xdpi="96"
       inkscape:export-ydpi="96" />
    <path
       style="fill:none;stroke:#000000;stroke-width:0.0913031;stroke-linecap:butt;stroke-linejoin:miter;stroke-miterlimit:4;stroke-dasharray:none;stroke-opacity:1"
       d="m 78.985512,122.25153 0.455511,7.96905"
       id="path42442-0"
       sodipodi:nodetypes="cc"
       inkscape:export-filename="/Users/AlbBezaresC/Downloads/ChamberDiagramplaty_Paper1.png"
       inkscape:export-xdpi="96"
       inkscape:export-ydpi="96" />
    <rect
       style="opacity:0.3;fill:none;stroke:#000000;stroke-width:1.42561;stroke-linecap:round;stroke-linejoin:round;stroke-dasharray:none;stroke-dashoffset:0"
       id="rect1745"
       width="37.138393"
       height="11.339871"
       x="59.472897"
       y="131.4146" />
    <rect
       style="opacity:0.3;fill:none;stroke:#000000;stroke-width:1.42561;stroke-linecap:round;stroke-linejoin:round;stroke-dasharray:none;stroke-dashoffset:0"
       id="rect1745-3"
       width="37.138393"
       height="11.339871"
       x="59.472897"
       y="144.17896" />
    <rect
       style="opacity:0.3;fill:none;stroke:#000000;stroke-width:1.42561;stroke-linecap:round;stroke-linejoin:round;stroke-dasharray:none;stroke-dashoffset:0"
       id="rect1745-3-6"
       width="37.138393"
       height="11.339871"
       x="59.472897"
       y="156.9433" />
    <rect
       style="opacity:0.3;fill:none;stroke:#000000;stroke-width:1.42561;stroke-linecap:round;stroke-linejoin:round;stroke-dasharray:none;stroke-dashoffset:0"
       id="rect1745-3-6-7"
       width="37.138393"
       height="11.339871"
       x="59.472897"
       y="169.70766" />
    <rect
       style="opacity:0.3;fill:none;stroke:#000000;stroke-width:1.42561;stroke-linecap:round;stroke-linejoin:round;stroke-dasharray:none;stroke-dashoffset:0"
       id="rect1745-3-6-5"
       width="37.138393"
       height="11.339871"
       x="59.472897"
       y="182.47202" />
    <text
       xml:space="preserve"
       style="font-size:5.29167px;line-height:1.25;font-family:sans-serif;stroke-width:0.264583"
       x="82.980934"
       y="136.59595"
       id="text2434"><tspan
         sodipodi:role="line"
         id="tspan2432"
         style="font-size:5.29167px;fill:#800000;stroke-width:0.264583"
         x="82.980934"
         y="136.59595">bin 1</tspan></text>
    <text
       xml:space="preserve"
       style="font-size:5.29167px;line-height:1.25;font-family:sans-serif;stroke-width:0.264583"
       x="82.980934"
       y="149.43616"
       id="text2434-3"><tspan
         sodipodi:role="line"
         id="tspan2432-5"
         style="font-size:5.29167px;fill:#800000;stroke-width:0.264583"
         x="82.980934"
         y="149.43616">bin 2</tspan></text>
    <text
       xml:space="preserve"
       style="font-size:5.29167px;line-height:1.25;font-family:sans-serif;stroke-width:0.264583"
       x="82.980934"
       y="162.27638"
       id="text2434-6"><tspan
         sodipodi:role="line"
         id="tspan2432-2"
         style="font-size:5.29167px;fill:#800000;stroke-width:0.264583"
         x="82.980934"
         y="162.27638">bin 3</tspan></text>
    <text
       xml:space="preserve"
       style="font-size:5.29167px;line-height:1.25;font-family:sans-serif;stroke-width:0.264583"
       x="82.980934"
       y="174.57849"
       id="text2434-9"><tspan
         sodipodi:role="line"
         id="tspan2432-1"
         style="font-size:5.29167px;fill:#800000;stroke-width:0.264583"
         x="82.980934"
         y="174.57849">bin 4</tspan></text>
    <text
       xml:space="preserve"
       style="font-size:5.29167px;line-height:1.25;font-family:sans-serif;stroke-width:0.264583"
       x="82.980934"
       y="187.95682"
       id="text2434-2"><tspan
         sodipodi:role="line"
         id="tspan2432-7"
         style="font-size:5.29167px;fill:#800000;stroke-width:0.264583"
         x="82.980934"
         y="187.95682">bin 5</tspan></text>
  </g>
</svg>
